<!-- Generated by IcoMoon.io -->
<svg version="1.1" xmlns="http://www.w3.org/2000/svg" width="1059" height="1024" viewBox="0 0 1059 1024">
<title></title>
<g id="icomoon-ignore">
</g>
<path d="M524.757 15.254c-204.803 1.86-397.18 127.039-475.027 329.838-101.678 264.88 30.579 561.998 295.459 663.676l117.73-306.811c-69.424-26.685-118.703-93.936-118.703-172.757 0-102.217 82.864-185.081 185.081-185.081s185.081 82.864 185.081 185.081c0 78.821-49.279 146.072-118.703 172.757l117.73 306.811c135.925-52.177 243.283-159.534 295.459-295.459 101.678-264.88-30.579-562.106-295.459-663.784-62.081-23.831-125.954-34.84-188.649-34.27z"></path>
</svg>
