<!-- Generated by IcoMoon.io -->
<svg version="1.1" xmlns="http://www.w3.org/2000/svg" width="528" height="1024" viewBox="0 0 528 1024">
<title></title>
<g id="icomoon-ignore">
</g>
<path d="M263.634 69.563c-90.023 0.531-170.804 34.404-202.063 86.467s-4.463 110.809 65.119 145.843l14.060-14.173c-61.685-31.058-83.525-80.306-56.784-124.844s98.335-75.458 179.87-75.94c81.535-0.481 154.194 29.605 182.417 73.847s8.007 93.697-52.603 125.456l14.431 13.981c68.452-35.869 93.3-94.963 60.349-146.618s-114.774-84.552-204.797-84.020zM74.88 746.448c-29.982 0-54.497 17.468-54.497 38.828 0 0.001 0 0.003 0 0.004 0 0.616 0.090 1.217 0.261 1.797 1.304 20.485 25.092 37.025 54.236 37.025h379.040c29.183 0 53.003-16.583 54.262-37.163 0.151-0.511 0.237-1.099 0.238-1.701 0-21.322-24.518-38.79-54.5-38.79h-379.040zM74.88 763.803h379.040c16.908 0 30.141 9.428 30.141 21.474s-13.233 21.472-30.141 21.472h-379.040c-16.908 0-30.138-9.425-30.138-21.472s13.23-21.474 30.138-21.474zM100.416 285.95c-42.586 0-77.251 24.697-77.251 55.037 0 0.001 0 0.001 0 0.002 0 0.616 0.090 1.217 0.261 1.797 1.312 29.463 35.241 53.238 76.99 53.238h329.827c41.79 0 75.754-23.821 77.016-53.381 0.149-0.508 0.234-1.092 0.235-1.691 0-30.306-34.665-55.003-77.251-55.003h-329.827zM100.416 303.305h329.827c29.513 0 52.892 16.656 52.892 37.683s-23.379 37.683-52.892 37.683h-329.827c-29.513 0-52.892-16.656-52.892-37.683s23.379-37.683 52.892-37.683zM435.905 380.383c0 0-103.198 172.619-0.263 377.949l22.938-5.837c-99.754-198.985-0.263-365.31-0.263-365.31l-22.412-6.802zM97.657 380.573l-22.412 6.802c0 0 99.491 166.325-0.263 365.31l22.938 5.837c102.935-205.33-0.263-377.949-0.263-377.949zM75.683 806.721c-29.982 0-54.497 17.468-54.497 38.828 0 0.001 0 0.003 0 0.004 0 0.616 0.090 1.217 0.261 1.797 1.304 20.485 25.092 37.027 54.236 37.027h379.040c29.183 0 53.003-16.586 54.262-37.165 0.151-0.511 0.237-1.099 0.238-1.701 0-21.322-24.518-38.79-54.5-38.79h-379.040zM75.683 824.076h379.040c16.908 0 30.141 9.428 30.141 21.474s-13.233 21.474-30.141 21.474h-379.040c-16.908 0-30.138-9.428-30.138-21.474s13.23-21.474 30.138-21.474zM68.956 867.191c-35.627 0-64.691 20.704-64.691 46.087v59.046c0 25.382 29.064 46.087 64.691 46.087h390.195c35.627 0 64.688-20.704 64.688-46.087v-59.046c0-25.382-29.061-46.087-64.688-46.087h-390.195zM68.956 884.545h390.195c22.553 0 40.329 12.664 40.329 28.732v59.046c0 16.068-17.776 28.732-40.329 28.732h-390.195c-22.553 0-40.332-12.664-40.332-28.732v-59.046c0-16.068 17.779-28.732 40.332-28.732zM271.376 3.894c-16.277-0.042-32.628 4.103-45.667 12.449-26.078 16.693-31.466 44.755-12.882 65.81 2.201 2.536 6.115 4.166 10.557 4.091 6.723-0.114 12.108-4.093 12.026-8.887-0.029-1.708-0.748-3.29-1.966-4.612-12.3-13.935-8.594-32.656 8.407-43.539s41.411-10.832 58.118 0.175c16.707 11.007 19.78 29.772 7.043 43.636-1.338 1.405-2.123 3.137-2.092 4.99 0.081 4.794 5.598 8.588 12.321 8.474 4.223-0.072 7.918-1.668 10.062-4.034 19.316-21.026 14.789-49.090-10.702-65.884-12.745-8.397-28.948-12.626-45.225-12.668zM107.272 744c0.019-0.811 3.158-9.436 6.975-19.167 39.068-99.585 40.121-207.020 2.976-303.729l-9.059-23.586h317.037l-1.776 4.423c-26.332 65.596-36.82 123.079-33.805 185.282 2.418 49.869 14.193 102.471 32.281 144.206 2.978 6.872 5.415 12.843 5.415 13.27s-72.018 0.776-160.040 0.776c-88.022 0-160.024-0.663-160.005-1.474zM77.35 373.641c-24.016-8.469-35.059-31.419-23.109-48.025 6.62-9.2 15.665-15.533 26.273-18.396 5.21-1.406 66.357-2.097 185.673-2.097 173.040 0 178.204 0.109 188.829 3.971 36.907 13.414 34.42 52.595-4.132 65.071-10.439 3.378-22.339 3.611-186.367 3.65-173.645 0.041-175.323 0.004-187.168-4.173zM118.605 272.194c-67.549-48.678-56.596-116.916 25.348-157.915 97.383-48.724 250.233-26.009 298.678 44.387 26.57 38.609 15.749 80.774-29.073 113.283l-18.634 13.515h-257.905l-18.414-13.27zM266.003 69.714c-22.058-0.418-33.714-1.419-35.139-3.018-1.173-1.315-2.152-6.905-2.175-12.421-0.070-16.575 16.4-29.928 38.963-31.588 29.111-2.142 51.94 19.030 43.785 40.606-2.132 5.64-4.331 7.772-7.705 7.47-2.597-0.232-19.575-0.705-37.728-1.049zM61.195 802.582c-4.835-2.101-10.113-5.578-11.727-7.727-6.855-9.125-0.585-23.235 12.164-27.374 10.393-3.374 395.378-3.374 405.772 0 13.699 4.447 19.489 19.833 10.793 28.679-10.34 10.517-4.882 10.256-214.231 10.248-187.206-0.007-194.285-0.141-202.77-3.827zM60.203 862.871c-7.463-4.19-13.67-11.953-13.66-17.085 0.018-8.436 9.609-17.282 21.231-19.581 6.89-1.363 75.168-2.079 198.902-2.086 202.556-0.012 201.382-0.068 211.327 10.048 7.404 7.531 5.829 18.784-3.566 25.478l-8.066 5.746-200.951-0.063c-153.678-0.048-201.955-0.626-205.217-2.457zM56.19 998.109c-12.694-3.241-22.732-11.152-25.008-19.71-0.867-3.26-1.183-21.554-0.701-40.654 0.978-38.799 2.504-42.253 21.766-49.251 8.755-3.181 24.502-3.434 210.89-3.397 190.596 0.038 202.038 0.237 212.758 3.706 8.52 2.757 12.84 5.889 17.421 12.631 5.71 8.403 6.038 11.184 5.226 44.317-0.946 38.634-1.722 40.597-19.862 50.249-7.514 3.998-10.387 4.059-209.536 4.49-169.465 0.367-203.692-0.016-212.956-2.381z"></path>
</svg>
