<!-- Generated by IcoMoon.io -->
<svg version="1.1" xmlns="http://www.w3.org/2000/svg" width="379" height="1024" viewBox="0 0 379 1024">
<title></title>
<g id="icomoon-ignore">
</g>
<path d="M189.052 69.563c-64.137 0.531-121.689 34.404-143.959 86.467s-3.18 110.809 46.394 145.843l10.017-14.173c-43.947-31.058-59.507-80.306-40.455-124.844s70.059-75.458 128.148-75.94c58.089-0.481 109.855 29.605 129.962 73.847s5.705 93.697-37.477 125.456l10.282 13.981c48.769-35.869 66.471-94.963 42.995-146.618s-81.77-84.552-145.907-84.020zM54.575 746.448c-21.36 0-38.826 17.468-38.826 38.828 0 0.001 0 0.003 0 0.004 0 0.616 0.064 1.217 0.186 1.797 0.929 20.485 17.877 37.025 38.64 37.025h270.046c20.791 0 37.762-16.583 38.659-37.163 0.107-0.511 0.169-1.099 0.17-1.701 0-21.322-17.468-38.79-38.829-38.79h-270.046zM54.575 763.803h270.046c12.046 0 21.474 9.428 21.474 21.474s-9.428 21.472-21.474 21.472h-270.046c-12.046 0-21.472-9.425-21.472-21.472s9.425-21.474 21.472-21.474zM72.768 285.95c-30.341 0-55.037 24.697-55.037 55.037 0 0.001 0 0.001 0 0.002 0 0.616 0.064 1.217 0.186 1.797 0.935 29.463 25.107 53.238 54.851 53.238h234.984c29.773 0 53.971-23.821 54.87-53.381 0.106-0.508 0.167-1.092 0.167-1.691 0-30.306-24.697-55.003-55.037-55.003h-234.984zM72.768 303.305h234.984c21.026 0 37.683 16.656 37.683 37.683s-16.656 37.683-37.683 37.683h-234.984c-21.026 0-37.683-16.656-37.683-37.683s16.656-37.683 37.683-37.683zM311.785 380.383c0 0-73.523 172.619-0.188 377.949l16.342-5.837c-71.069-198.985-0.188-365.31-0.188-365.31l-15.967-6.802zM70.802 380.573l-15.967 6.802c0 0 70.882 166.325-0.188 365.31l16.342 5.837c73.335-205.33-0.188-377.949-0.188-377.949zM55.146 806.721c-21.36 0-38.826 17.468-38.826 38.828 0 0.001 0 0.003 0 0.004 0 0.616 0.064 1.217 0.186 1.797 0.929 20.485 17.877 37.027 38.64 37.027h270.046c20.791 0 37.762-16.586 38.659-37.165 0.107-0.511 0.169-1.099 0.17-1.701 0-21.322-17.468-38.79-38.829-38.79h-270.046zM55.146 824.076h270.046c12.046 0 21.474 9.428 21.474 21.474s-9.428 21.474-21.474 21.474h-270.046c-12.046 0-21.472-9.428-21.472-21.474s9.425-21.474 21.472-21.474zM50.354 867.191c-25.382 0-46.089 20.704-46.089 46.087v59.046c0 25.382 20.707 46.087 46.089 46.087h277.993c25.382 0 46.087-20.704 46.087-46.087v-59.046c0-25.382-20.704-46.087-46.087-46.087h-277.993zM50.354 884.545h277.993c16.068 0 28.732 12.664 28.732 28.732v59.046c0 16.068-12.664 28.732-28.732 28.732h-277.993c-16.068 0-28.734-12.664-28.734-28.732v-59.046c0-16.068 12.666-28.732 28.734-28.732zM194.567 3.894c-11.597-0.042-23.246 4.103-32.535 12.449-18.579 16.693-22.418 44.755-9.178 65.81 0.382 0.641 0.905 1.287 1.533 1.86 3.52 3.211 9.008 2.927 12.257-0.635 2.724-2.987 3.010-7.33 0.955-10.547-8.82-14.020-6.179-32.742 5.933-43.625s29.503-10.832 41.406 0.175c11.903 11.007 14.092 29.772 5.018 43.636-2.368 3.56-1.883 8.328 1.3 11.232 3.52 3.211 9.008 2.927 12.257-0.635 0.359-0.393 0.675-0.81 0.949-1.244 13.712-20.95 10.487-49.013-7.674-65.808-9.080-8.397-20.624-12.626-32.221-12.668zM77.652 744c0.013-0.811 2.25-9.436 4.97-19.167 27.834-99.585 28.584-207.020 2.12-303.729l-6.454-23.586h225.872l-1.265 4.423c-18.76 65.596-26.232 123.079-24.084 185.282 1.722 49.869 10.112 102.471 22.998 144.206 2.122 6.872 3.858 12.843 3.858 13.27s-51.309 0.776-114.020 0.776c-62.711 0-114.009-0.663-113.995-1.474zM56.334 373.641c-17.11-8.469-24.978-31.419-16.464-48.025 4.717-9.2 11.16-15.533 18.718-18.396 3.712-1.406 47.276-2.097 132.282-2.097 123.282 0 126.961 0.109 134.531 3.971 26.295 13.414 24.522 52.595-2.944 65.071-7.437 3.378-15.915 3.611-132.777 3.65-123.713 0.041-124.908 0.004-133.347-4.173zM85.726 272.194c-48.125-48.678-40.321-116.916 18.059-157.915 69.38-48.724 178.277-26.009 212.792 44.387 18.93 38.609 11.22 80.774-20.713 113.283l-13.276 13.515h-183.744l-13.119-13.27zM190.739 69.714c-15.715-0.418-24.019-1.419-25.035-3.018-0.836-1.315-1.533-6.905-1.55-12.421-0.050-16.575 11.684-29.928 27.759-31.588 20.74-2.142 37.005 19.030 31.195 40.606-1.519 5.64-3.085 7.772-5.49 7.47-1.85-0.232-13.946-0.705-26.88-1.049zM44.825 802.582c-3.445-2.101-7.205-5.578-8.355-7.727-4.884-9.125-0.417-23.235 8.666-27.374 7.405-3.374 281.686-3.374 289.091 0 9.76 4.447 13.885 19.833 7.689 28.679-7.366 10.517-3.478 10.256-152.628 10.248-133.375-0.007-138.418-0.141-144.463-3.827zM44.118 862.871c-5.317-4.19-9.739-11.953-9.732-17.085 0.012-8.436 6.846-17.282 15.126-19.581 4.908-1.363 53.553-2.079 141.707-2.086 144.31-0.012 143.474-0.068 150.559 10.048 5.275 7.531 4.153 18.784-2.541 25.478l-5.746 5.746-143.167-0.063c-109.487-0.048-143.882-0.626-146.206-2.457zM41.259 998.109c-9.044-3.241-16.195-11.152-17.817-19.71-0.618-3.26-0.843-21.554-0.5-40.654 0.697-38.799 1.784-42.253 15.507-49.251 6.237-3.181 17.456-3.434 150.248-3.397 135.79 0.038 143.942 0.237 151.579 3.706 6.070 2.757 9.148 5.889 12.412 12.631 4.068 8.403 4.302 11.184 3.724 44.317-0.674 38.634-1.227 40.597-14.151 50.249-5.353 3.998-7.4 4.059-149.284 4.49-120.735 0.367-145.12-0.016-151.72-2.381z"></path>
</svg>
